<svg xmlns="http://www.w3.org/2000/svg" viewBox="0 0 1000 457" role="img">
<rect width="100%" height="100%" fill="#ffffff"/>
<text x="190" y="35" font-family="Arial,sans-serif" font-size="23" font-weight="700" fill="#17212f">SKUs by zero-sale-day share</text>
<text x="178" y="91" text-anchor="end" font-family="Arial,sans-serif" font-size="14" fill="#344456">0–10%</text>
<rect x="190" y="72" width="0.9" height="24" rx="3" fill="#1769aa"/>
<text x="198.9" y="90" font-family="Arial,sans-serif" font-size="13" fill="#344456">3</text>
<text x="178" y="126" text-anchor="end" font-family="Arial,sans-serif" font-size="14" fill="#344456">10–20%</text>
<rect x="190" y="107" width="17.8" height="24" rx="3" fill="#1769aa"/>
<text x="215.8" y="125" font-family="Arial,sans-serif" font-size="13" fill="#344456">60</text>
<text x="178" y="161" text-anchor="end" font-family="Arial,sans-serif" font-size="14" fill="#344456">20–30%</text>
<rect x="190" y="142" width="39.2" height="24" rx="3" fill="#1769aa"/>
<text x="237.2" y="160" font-family="Arial,sans-serif" font-size="13" fill="#344456">132</text>
<text x="178" y="196" text-anchor="end" font-family="Arial,sans-serif" font-size="14" fill="#344456">30–40%</text>
<rect x="190" y="177" width="58.2" height="24" rx="3" fill="#1769aa"/>
<text x="256.2" y="195" font-family="Arial,sans-serif" font-size="13" fill="#344456">196</text>
<text x="178" y="231" text-anchor="end" font-family="Arial,sans-serif" font-size="14" fill="#344456">40–50%</text>
<rect x="190" y="212" width="76.1" height="24" rx="3" fill="#1769aa"/>
<text x="274.1" y="230" font-family="Arial,sans-serif" font-size="13" fill="#344456">256</text>
<text x="178" y="266" text-anchor="end" font-family="Arial,sans-serif" font-size="14" fill="#344456">50–60%</text>
<rect x="190" y="247" width="98.6" height="24" rx="3" fill="#1769aa"/>
<text x="296.6" y="265" font-family="Arial,sans-serif" font-size="13" fill="#344456">332</text>
<text x="178" y="301" text-anchor="end" font-family="Arial,sans-serif" font-size="14" fill="#344456">60–70%</text>
<rect x="190" y="282" width="117.7" height="24" rx="3" fill="#1769aa"/>
<text x="315.7" y="300" font-family="Arial,sans-serif" font-size="13" fill="#344456">396</text>
<text x="178" y="336" text-anchor="end" font-family="Arial,sans-serif" font-size="14" fill="#344456">70–80%</text>
<rect x="190" y="317" width="141.7" height="24" rx="3" fill="#1769aa"/>
<text x="339.7" y="335" font-family="Arial,sans-serif" font-size="13" fill="#344456">477</text>
<text x="178" y="371" text-anchor="end" font-family="Arial,sans-serif" font-size="14" fill="#344456">80–90%</text>
<rect x="190" y="352" width="233.0" height="24" rx="3" fill="#1769aa"/>
<text x="431.0" y="370" font-family="Arial,sans-serif" font-size="13" fill="#344456">784</text>
<text x="178" y="406" text-anchor="end" font-family="Arial,sans-serif" font-size="14" fill="#344456">90–100%</text>
<rect x="190" y="387" width="695.0" height="24" rx="3" fill="#1769aa"/>
<text x="893.0" y="405" font-family="Arial,sans-serif" font-size="13" fill="#344456">2,339</text>
</svg>